<svg width="530" height="253" viewBox="0 0 530 253" fill="none" xmlns="http://www.w3.org/2000/svg">
<rect width="530" height="253" rx="15" fill="#F2F2F2"/>
<path d="M32.84 214.88V209.972C33.472 209.972 33.984 209.812 34.376 209.492C34.776 209.172 35.088 208.74 35.312 208.196C35.536 207.644 35.704 207.024 35.816 206.336C35.936 205.648 36.032 204.936 36.104 204.2C36.208 203.16 36.292 202.152 36.356 201.176C36.428 200.2 36.492 199.188 36.548 198.14C36.604 197.092 36.668 195.948 36.74 194.708L47.6 194.72V209.972H48.86V214.88H46.724V212H34.976V214.88H32.84ZM36.584 209.972H45.464V196.748L38.72 196.736C38.672 197.664 38.624 198.556 38.576 199.412C38.536 200.26 38.484 201.116 38.42 201.98C38.356 202.844 38.276 203.76 38.18 204.728C38.092 205.624 37.992 206.4 37.88 207.056C37.776 207.704 37.624 208.264 37.424 208.736C37.224 209.2 36.944 209.612 36.584 209.972ZM57.0125 212.36C55.7245 212.36 54.6125 212.068 53.6765 211.484C52.7485 210.9 52.0325 210.092 51.5285 209.06C51.0245 208.028 50.7725 206.844 50.7725 205.508C50.7725 204.148 51.0285 202.956 51.5405 201.932C52.0525 200.908 52.7765 200.112 53.7125 199.544C54.6485 198.968 55.7485 198.68 57.0125 198.68C58.3085 198.68 59.4245 198.972 60.3605 199.556C61.2965 200.132 62.0125 200.936 62.5085 201.968C63.0125 202.992 63.2645 204.172 63.2645 205.508C63.2645 206.86 63.0125 208.052 62.5085 209.084C62.0045 210.108 61.2845 210.912 60.3485 211.496C59.4125 212.072 58.3005 212.36 57.0125 212.36ZM57.0125 210.332C58.3565 210.332 59.3565 209.884 60.0125 208.988C60.6685 208.092 60.9965 206.932 60.9965 205.508C60.9965 204.044 60.6645 202.88 60.0005 202.016C59.3365 201.144 58.3405 200.708 57.0125 200.708C56.1085 200.708 55.3645 200.912 54.7805 201.32C54.1965 201.728 53.7605 202.292 53.4725 203.012C53.1845 203.732 53.0405 204.564 53.0405 205.508C53.0405 206.964 53.3765 208.132 54.0485 209.012C54.7205 209.892 55.7085 210.332 57.0125 210.332ZM65.8946 212V199.04H71.4146C71.7426 199.04 72.0946 199.06 72.4706 199.1C72.8546 199.132 73.2026 199.192 73.5146 199.28C74.2106 199.464 74.7826 199.844 75.2306 200.42C75.6866 200.988 75.9146 201.708 75.9146 202.58C75.9146 203.068 75.8386 203.492 75.6866 203.852C75.5426 204.212 75.3346 204.524 75.0626 204.788C74.9426 204.908 74.8106 205.016 74.6666 205.112C74.5226 205.208 74.3786 205.284 74.2346 205.34C74.5146 205.388 74.7986 205.496 75.0866 205.664C75.5426 205.912 75.8986 206.26 76.1546 206.708C76.4186 207.156 76.5506 207.728 76.5506 208.424C76.5506 209.304 76.3386 210.032 75.9146 210.608C75.4906 211.176 74.9066 211.568 74.1626 211.784C73.8506 211.872 73.5066 211.932 73.1306 211.964C72.7546 211.988 72.3906 212 72.0386 212H65.8946ZM68.0546 210.26H71.9186C72.0866 210.26 72.2866 210.244 72.5186 210.212C72.7586 210.18 72.9706 210.14 73.1546 210.092C73.5706 209.972 73.8706 209.748 74.0546 209.42C74.2466 209.092 74.3426 208.736 74.3426 208.352C74.3426 207.84 74.1986 207.424 73.9106 207.104C73.6306 206.784 73.2586 206.584 72.7946 206.504C72.6266 206.456 72.4426 206.428 72.2426 206.42C72.0506 206.412 71.8786 206.408 71.7266 206.408H68.0546V210.26ZM68.0546 204.644H71.2706C71.4946 204.644 71.7306 204.632 71.9786 204.608C72.2266 204.576 72.4426 204.524 72.6266 204.452C72.9946 204.316 73.2626 204.092 73.4306 203.78C73.6066 203.46 73.6946 203.112 73.6946 202.736C73.6946 202.32 73.5986 201.956 73.4066 201.644C73.2226 201.324 72.9386 201.104 72.5546 200.984C72.2986 200.888 72.0106 200.836 71.6906 200.828C71.3786 200.812 71.1786 200.804 71.0906 200.804H68.0546V204.644ZM84.4813 212.36C83.1933 212.36 82.0813 212.068 81.1453 211.484C80.2173 210.9 79.5013 210.092 78.9973 209.06C78.4933 208.028 78.2413 206.844 78.2413 205.508C78.2413 204.148 78.4973 202.956 79.0093 201.932C79.5213 200.908 80.2453 200.112 81.1813 199.544C82.1173 198.968 83.2173 198.68 84.4813 198.68C85.7773 198.68 86.8933 198.972 87.8293 199.556C88.7653 200.132 89.4813 200.936 89.9773 201.968C90.4813 202.992 90.7333 204.172 90.7333 205.508C90.7333 206.86 90.4813 208.052 89.9773 209.084C89.4733 210.108 88.7533 210.912 87.8173 211.496C86.8813 212.072 85.7693 212.36 84.4813 212.36ZM84.4813 210.332C85.8253 210.332 86.8253 209.884 87.4813 208.988C88.1373 208.092 88.4653 206.932 88.4653 205.508C88.4653 204.044 88.1333 202.88 87.4693 202.016C86.8053 201.144 85.8093 200.708 84.4813 200.708C83.5773 200.708 82.8333 200.912 82.2493 201.32C81.6653 201.728 81.2293 202.292 80.9413 203.012C80.6533 203.732 80.5093 204.564 80.5093 205.508C80.5093 206.964 80.8453 208.132 81.5173 209.012C82.1893 209.892 83.1773 210.332 84.4813 210.332ZM92.1753 212V210.164C92.6553 210.252 93.0193 210.236 93.2673 210.116C93.5233 209.988 93.7113 209.768 93.8313 209.456C93.9593 209.136 94.0633 208.736 94.1433 208.256C94.2793 207.496 94.3953 206.648 94.4913 205.712C94.5953 204.776 94.6873 203.752 94.7673 202.64C94.8553 201.52 94.9353 200.32 95.0073 199.04H104.067V212H101.931V201.068H96.9513C96.9033 201.804 96.8433 202.56 96.7713 203.336C96.7073 204.112 96.6393 204.868 96.5673 205.604C96.4953 206.332 96.4153 207.012 96.3273 207.644C96.2473 208.268 96.1593 208.808 96.0633 209.264C95.9113 210.048 95.6993 210.676 95.4273 211.148C95.1553 211.612 94.7633 211.912 94.2513 212.048C93.7393 212.192 93.0473 212.176 92.1753 212ZM107.438 212L107.426 199.04H109.574V203.732H112.37C112.746 203.732 113.13 203.74 113.522 203.756C113.914 203.772 114.254 203.808 114.542 203.864C115.214 203.992 115.802 204.216 116.306 204.536C116.81 204.856 117.202 205.292 117.482 205.844C117.762 206.388 117.902 207.064 117.902 207.872C117.902 208.992 117.61 209.88 117.026 210.536C116.45 211.184 115.694 211.616 114.758 211.832C114.438 211.904 114.07 211.952 113.654 211.976C113.246 211.992 112.858 212 112.49 212H107.438ZM109.574 210.236H112.526C112.766 210.236 113.034 210.228 113.33 210.212C113.626 210.196 113.89 210.156 114.122 210.092C114.53 209.972 114.894 209.736 115.214 209.384C115.542 209.032 115.706 208.528 115.706 207.872C115.706 207.208 115.546 206.696 115.226 206.336C114.914 205.976 114.502 205.74 113.99 205.628C113.758 205.572 113.514 205.536 113.258 205.52C113.002 205.504 112.758 205.496 112.526 205.496H109.574V210.236ZM120.176 212V199.04H122.312V204.5H129.128V199.04H131.264V212H129.128V206.528H122.312V212H120.176ZM134.625 212L134.613 199.04H136.761V203.732H138.741C139.117 203.732 139.501 203.74 139.893 203.756C140.285 203.772 140.625 203.808 140.913 203.864C141.585 204 142.173 204.228 142.677 204.548C143.181 204.868 143.573 205.3 143.853 205.844C144.133 206.388 144.273 207.064 144.273 207.872C144.273 208.992 143.981 209.88 143.397 210.536C142.821 211.184 142.065 211.616 141.129 211.832C140.809 211.904 140.441 211.952 140.025 211.976C139.617 211.992 139.229 212 138.861 212H134.625ZM136.761 210.236H138.897C139.137 210.236 139.405 210.228 139.701 210.212C139.997 210.196 140.261 210.156 140.493 210.092C140.901 209.972 141.265 209.736 141.585 209.384C141.913 209.032 142.077 208.528 142.077 207.872C142.077 207.208 141.917 206.696 141.597 206.336C141.285 205.976 140.873 205.74 140.361 205.628C140.129 205.572 139.885 205.536 139.629 205.52C139.373 205.504 139.129 205.496 138.897 205.496H136.761V210.236ZM145.761 212V199.04H147.897V212H145.761ZM149.826 212L154.782 205.448L149.934 199.04H152.478L156.03 203.792L159.546 199.04H162.09L157.242 205.448L162.21 212H159.654L156.03 207.104L152.382 212H149.826ZM168.926 212V199.04H179.546V212H177.41V201.068H171.062V212H168.926ZM188.427 212.36C187.139 212.36 186.027 212.068 185.091 211.484C184.163 210.9 183.447 210.092 182.943 209.06C182.439 208.028 182.187 206.844 182.187 205.508C182.187 204.148 182.443 202.956 182.955 201.932C183.467 200.908 184.191 200.112 185.127 199.544C186.063 198.968 187.163 198.68 188.427 198.68C189.723 198.68 190.839 198.972 191.775 199.556C192.711 200.132 193.427 200.936 193.923 201.968C194.427 202.992 194.679 204.172 194.679 205.508C194.679 206.86 194.427 208.052 193.923 209.084C193.419 210.108 192.699 210.912 191.763 211.496C190.827 212.072 189.715 212.36 188.427 212.36ZM188.427 210.332C189.771 210.332 190.771 209.884 191.427 208.988C192.083 208.092 192.411 206.932 192.411 205.508C192.411 204.044 192.079 202.88 191.415 202.016C190.751 201.144 189.755 200.708 188.427 200.708C187.523 200.708 186.779 200.912 186.195 201.32C185.611 201.728 185.175 202.292 184.887 203.012C184.599 203.732 184.455 204.564 184.455 205.508C184.455 206.964 184.791 208.132 185.463 209.012C186.135 209.892 187.123 210.332 188.427 210.332ZM197.309 212L197.321 199.04H199.481V205.28L204.917 199.04H207.689L201.965 205.52L208.361 212H205.373L199.481 205.76V212H197.309ZM211.355 217.76L213.863 210.944L213.899 212.96L208.235 199.04H210.479L214.919 210.236H214.151L218.315 199.04H220.487L213.431 217.76H211.355ZM222.457 212V199.04H233.077V212H230.941V201.068H224.593V212H222.457ZM240.122 212.36C239.154 212.36 238.342 212.184 237.686 211.832C237.038 211.472 236.546 211 236.21 210.416C235.882 209.832 235.718 209.192 235.718 208.496C235.718 207.816 235.846 207.228 236.102 206.732C236.366 206.228 236.734 205.812 237.206 205.484C237.678 205.148 238.242 204.884 238.898 204.692C239.514 204.524 240.202 204.38 240.962 204.26C241.73 204.132 242.506 204.016 243.29 203.912C244.074 203.808 244.806 203.708 245.486 203.612L244.718 204.056C244.742 202.904 244.51 202.052 244.022 201.5C243.542 200.948 242.71 200.672 241.526 200.672C240.742 200.672 240.054 200.852 239.462 201.212C238.878 201.564 238.466 202.14 238.226 202.94L236.198 202.328C236.51 201.192 237.114 200.3 238.01 199.652C238.906 199.004 240.086 198.68 241.55 198.68C242.726 198.68 243.734 198.892 244.574 199.316C245.422 199.732 246.03 200.364 246.398 201.212C246.582 201.612 246.698 202.048 246.746 202.52C246.794 202.984 246.818 203.472 246.818 203.984V212H244.922V208.892L245.366 209.18C244.878 210.228 244.194 211.02 243.314 211.556C242.442 212.092 241.378 212.36 240.122 212.36ZM240.446 210.572C241.214 210.572 241.878 210.436 242.438 210.164C243.006 209.884 243.462 209.52 243.806 209.072C244.15 208.616 244.374 208.12 244.478 207.584C244.598 207.184 244.662 206.74 244.67 206.252C244.686 205.756 244.694 205.376 244.694 205.112L245.438 205.436C244.742 205.532 244.058 205.624 243.386 205.712C242.714 205.8 242.078 205.896 241.478 206C240.878 206.096 240.338 206.212 239.858 206.348C239.506 206.46 239.174 206.604 238.862 206.78C238.558 206.956 238.31 207.184 238.118 207.464C237.934 207.736 237.842 208.076 237.842 208.484C237.842 208.836 237.93 209.172 238.106 209.492C238.29 209.812 238.57 210.072 238.946 210.272C239.33 210.472 239.83 210.572 240.446 210.572ZM253.37 212V200.984H248.858V199.04H260.018V200.984H255.506V212H253.37ZM267.905 212.36C266.633 212.36 265.521 212.08 264.569 211.52C263.625 210.952 262.889 210.164 262.361 209.156C261.833 208.14 261.569 206.956 261.569 205.604C261.569 204.188 261.829 202.964 262.349 201.932C262.869 200.892 263.593 200.092 264.521 199.532C265.457 198.964 266.553 198.68 267.809 198.68C269.113 198.68 270.221 198.98 271.133 199.58C272.053 200.18 272.741 201.036 273.197 202.148C273.661 203.26 273.861 204.584 273.797 206.12H271.637V205.352C271.613 203.76 271.289 202.572 270.665 201.788C270.041 200.996 269.113 200.6 267.881 200.6C266.561 200.6 265.557 201.024 264.869 201.872C264.181 202.72 263.837 203.936 263.837 205.52C263.837 207.048 264.181 208.232 264.869 209.072C265.557 209.912 266.537 210.332 267.809 210.332C268.665 210.332 269.409 210.136 270.041 209.744C270.673 209.352 271.169 208.788 271.529 208.052L273.581 208.76C273.077 209.904 272.317 210.792 271.301 211.424C270.293 212.048 269.161 212.36 267.905 212.36ZM263.117 206.12V204.404H272.693V206.12H263.117ZM275.269 212V210.164C275.749 210.252 276.113 210.236 276.361 210.116C276.617 209.988 276.805 209.768 276.925 209.456C277.053 209.136 277.157 208.736 277.237 208.256C277.373 207.496 277.489 206.648 277.585 205.712C277.689 204.776 277.781 203.752 277.861 202.64C277.949 201.52 278.029 200.32 278.101 199.04H287.161V212H285.025V201.068H280.045C279.997 201.804 279.937 202.56 279.865 203.336C279.801 204.112 279.733 204.868 279.661 205.604C279.589 206.332 279.509 207.012 279.421 207.644C279.341 208.268 279.253 208.808 279.157 209.264C279.005 210.048 278.793 210.676 278.521 211.148C278.249 211.612 277.857 211.912 277.345 212.048C276.833 212.192 276.141 212.176 275.269 212ZM296.148 212.36C294.876 212.36 293.764 212.08 292.812 211.52C291.868 210.952 291.132 210.164 290.604 209.156C290.076 208.14 289.812 206.956 289.812 205.604C289.812 204.188 290.072 202.964 290.592 201.932C291.112 200.892 291.836 200.092 292.764 199.532C293.7 198.964 294.796 198.68 296.052 198.68C297.356 198.68 298.464 198.98 299.376 199.58C300.296 200.18 300.984 201.036 301.44 202.148C301.904 203.26 302.104 204.584 302.04 206.12H299.88V205.352C299.856 203.76 299.532 202.572 298.908 201.788C298.284 200.996 297.356 200.6 296.124 200.6C294.804 200.6 293.8 201.024 293.112 201.872C292.424 202.72 292.08 203.936 292.08 205.52C292.08 207.048 292.424 208.232 293.112 209.072C293.8 209.912 294.78 210.332 296.052 210.332C296.908 210.332 297.652 210.136 298.284 209.744C298.916 209.352 299.412 208.788 299.772 208.052L301.824 208.76C301.32 209.904 300.56 210.792 299.544 211.424C298.536 212.048 297.404 212.36 296.148 212.36ZM291.36 206.12V204.404H300.936V206.12H291.36ZM310.291 197.528C309.691 197.528 309.143 197.38 308.647 197.084C308.151 196.788 307.755 196.396 307.459 195.908C307.163 195.412 307.015 194.86 307.015 194.252H308.743C308.743 194.676 308.895 195.04 309.199 195.344C309.503 195.648 309.867 195.8 310.291 195.8C310.723 195.8 311.087 195.648 311.383 195.344C311.687 195.04 311.839 194.676 311.839 194.252H313.567C313.567 194.86 313.419 195.412 313.123 195.908C312.835 196.396 312.439 196.788 311.935 197.084C311.439 197.38 310.891 197.528 310.291 197.528ZM315.319 199.04V212H313.255V202.448L306.463 212H304.699V199.04H306.763V208.46L313.567 199.04H315.319Z" fill="#454545"/>
<path d="M44.48 92V54.336L35.84 59.616V51.104L44.48 45.92H52.352V92H44.48ZM81.1185 92.96C77.8545 92.96 74.9745 92.2667 72.4785 90.88C69.9825 89.472 68.0305 87.52 66.6225 85.024C65.2358 82.528 64.5425 79.648 64.5425 76.384V61.536C64.5425 58.272 65.2358 55.392 66.6225 52.896C68.0305 50.4 69.9825 48.4587 72.4785 47.072C74.9745 45.664 77.8545 44.96 81.1185 44.96C84.3825 44.96 87.2518 45.664 89.7265 47.072C92.2225 48.4587 94.1745 50.4 95.5825 52.896C96.9905 55.392 97.6945 58.272 97.6945 61.536V76.384C97.6945 79.648 96.9905 82.528 95.5825 85.024C94.1745 87.52 92.2225 89.472 89.7265 90.88C87.2518 92.2667 84.3825 92.96 81.1185 92.96ZM81.1185 85.632C82.7398 85.632 84.2118 85.248 85.5345 84.48C86.8572 83.6907 87.9025 82.6453 88.6705 81.344C89.4385 80.0213 89.8225 78.5493 89.8225 76.928V60.96C89.8225 59.3173 89.4385 57.8453 88.6705 56.544C87.9025 55.2213 86.8572 54.176 85.5345 53.408C84.2118 52.6187 82.7398 52.224 81.1185 52.224C79.4972 52.224 78.0252 52.6187 76.7025 53.408C75.3798 54.176 74.3345 55.2213 73.5665 56.544C72.7985 57.8453 72.4145 59.3173 72.4145 60.96V76.928C72.4145 78.5493 72.7985 80.0213 73.5665 81.344C74.3345 82.6453 75.3798 83.6907 76.7025 84.48C78.0252 85.248 79.4972 85.632 81.1185 85.632ZM123.244 92.96C119.98 92.96 117.1 92.2667 114.604 90.88C112.108 89.472 110.156 87.52 108.748 85.024C107.361 82.528 106.668 79.648 106.668 76.384V61.536C106.668 58.272 107.361 55.392 108.748 52.896C110.156 50.4 112.108 48.4587 114.604 47.072C117.1 45.664 119.98 44.96 123.244 44.96C126.508 44.96 129.377 45.664 131.852 47.072C134.348 48.4587 136.3 50.4 137.708 52.896C139.116 55.392 139.819 58.272 139.819 61.536V76.384C139.819 79.648 139.116 82.528 137.708 85.024C136.3 87.52 134.348 89.472 131.852 90.88C129.377 92.2667 126.508 92.96 123.244 92.96ZM123.244 85.632C124.865 85.632 126.337 85.248 127.66 84.48C128.982 83.6907 130.028 82.6453 130.796 81.344C131.564 80.0213 131.948 78.5493 131.948 76.928V60.96C131.948 59.3173 131.564 57.8453 130.796 56.544C130.028 55.2213 128.982 54.176 127.66 53.408C126.337 52.6187 124.865 52.224 123.244 52.224C121.622 52.224 120.15 52.6187 118.828 53.408C117.505 54.176 116.46 55.2213 115.692 56.544C114.924 57.8453 114.54 59.3173 114.54 60.96V76.928C114.54 78.5493 114.924 80.0213 115.692 81.344C116.46 82.6453 117.505 83.6907 118.828 84.48C120.15 85.248 121.622 85.632 123.244 85.632ZM165.369 92.96C162.105 92.96 159.225 92.2667 156.729 90.88C154.233 89.472 152.281 87.52 150.873 85.024C149.486 82.528 148.793 79.648 148.793 76.384V61.536C148.793 58.272 149.486 55.392 150.873 52.896C152.281 50.4 154.233 48.4587 156.729 47.072C159.225 45.664 162.105 44.96 165.369 44.96C168.633 44.96 171.502 45.664 173.977 47.072C176.473 48.4587 178.425 50.4 179.833 52.896C181.241 55.392 181.944 58.272 181.944 61.536V76.384C181.944 79.648 181.241 82.528 179.833 85.024C178.425 87.52 176.473 89.472 173.977 90.88C171.502 92.2667 168.633 92.96 165.369 92.96ZM165.369 85.632C166.99 85.632 168.462 85.248 169.785 84.48C171.107 83.6907 172.153 82.6453 172.921 81.344C173.689 80.0213 174.073 78.5493 174.073 76.928V60.96C174.073 59.3173 173.689 57.8453 172.921 56.544C172.153 55.2213 171.107 54.176 169.785 53.408C168.462 52.6187 166.99 52.224 165.369 52.224C163.747 52.224 162.275 52.6187 160.953 53.408C159.63 54.176 158.585 55.2213 157.817 56.544C157.049 57.8453 156.665 59.3173 156.665 60.96V76.928C156.665 78.5493 157.049 80.0213 157.817 81.344C158.585 82.6453 159.63 83.6907 160.953 84.48C162.275 85.248 163.747 85.632 165.369 85.632ZM201.734 83.424V71.968H190.278V65.92H201.734V54.496H207.782V65.92H219.174V71.968H207.782V83.424H201.734Z" fill="#454545"/>
</svg>
