<svg width="530" height="253" viewBox="0 0 530 253" fill="none" xmlns="http://www.w3.org/2000/svg">
<rect width="530" height="253" rx="15" fill="#F2F2F2"/>
<path d="M38.132 212V196.748H32.24V194.72H46.16V196.748H40.268V212H38.132ZM51.6688 212.36C50.3808 212.36 49.2688 212.068 48.3328 211.484C47.4048 210.9 46.6888 210.092 46.1848 209.06C45.6808 208.028 45.4288 206.844 45.4288 205.508C45.4288 204.148 45.6848 202.956 46.1968 201.932C46.7088 200.908 47.4328 200.112 48.3688 199.544C49.3048 198.968 50.4048 198.68 51.6688 198.68C52.9648 198.68 54.0808 198.972 55.0168 199.556C55.9528 200.132 56.6688 200.936 57.1648 201.968C57.6688 202.992 57.9208 204.172 57.9208 205.508C57.9208 206.86 57.6688 208.052 57.1648 209.084C56.6608 210.108 55.9408 210.912 55.0048 211.496C54.0688 212.072 52.9568 212.36 51.6688 212.36ZM51.6688 210.332C53.0128 210.332 54.0128 209.884 54.6688 208.988C55.3248 208.092 55.6528 206.932 55.6528 205.508C55.6528 204.044 55.3208 202.88 54.6568 202.016C53.9928 201.144 52.9968 200.708 51.6688 200.708C50.7648 200.708 50.0208 200.912 49.4368 201.32C48.8528 201.728 48.4168 202.292 48.1288 203.012C47.8408 203.732 47.6968 204.564 47.6968 205.508C47.6968 206.964 48.0328 208.132 48.7048 209.012C49.3768 209.892 50.3648 210.332 51.6688 210.332ZM60.5508 212V199.04H66.0708C66.3988 199.04 66.7508 199.06 67.1268 199.1C67.5108 199.132 67.8588 199.192 68.1708 199.28C68.8668 199.464 69.4388 199.844 69.8868 200.42C70.3428 200.988 70.5708 201.708 70.5708 202.58C70.5708 203.068 70.4948 203.492 70.3428 203.852C70.1988 204.212 69.9908 204.524 69.7188 204.788C69.5988 204.908 69.4668 205.016 69.3228 205.112C69.1788 205.208 69.0348 205.284 68.8908 205.34C69.1708 205.388 69.4548 205.496 69.7428 205.664C70.1988 205.912 70.5548 206.26 70.8108 206.708C71.0748 207.156 71.2068 207.728 71.2068 208.424C71.2068 209.304 70.9948 210.032 70.5708 210.608C70.1468 211.176 69.5628 211.568 68.8188 211.784C68.5068 211.872 68.1628 211.932 67.7868 211.964C67.4108 211.988 67.0468 212 66.6948 212H60.5508ZM62.7108 210.26H66.5748C66.7428 210.26 66.9428 210.244 67.1748 210.212C67.4148 210.18 67.6268 210.14 67.8108 210.092C68.2268 209.972 68.5268 209.748 68.7108 209.42C68.9028 209.092 68.9988 208.736 68.9988 208.352C68.9988 207.84 68.8548 207.424 68.5668 207.104C68.2868 206.784 67.9148 206.584 67.4508 206.504C67.2828 206.456 67.0988 206.428 66.8988 206.42C66.7068 206.412 66.5348 206.408 66.3828 206.408H62.7108V210.26ZM62.7108 204.644H65.9268C66.1508 204.644 66.3868 204.632 66.6348 204.608C66.8828 204.576 67.0988 204.524 67.2828 204.452C67.6508 204.316 67.9188 204.092 68.0868 203.78C68.2628 203.46 68.3508 203.112 68.3508 202.736C68.3508 202.32 68.2548 201.956 68.0628 201.644C67.8788 201.324 67.5948 201.104 67.2108 200.984C66.9548 200.888 66.6668 200.836 66.3468 200.828C66.0348 200.812 65.8348 200.804 65.7468 200.804H62.7108V204.644ZM77.3015 212.36C76.3335 212.36 75.5215 212.184 74.8655 211.832C74.2175 211.472 73.7255 211 73.3895 210.416C73.0615 209.832 72.8975 209.192 72.8975 208.496C72.8975 207.816 73.0255 207.228 73.2815 206.732C73.5455 206.228 73.9135 205.812 74.3855 205.484C74.8575 205.148 75.4215 204.884 76.0775 204.692C76.6935 204.524 77.3815 204.38 78.1415 204.26C78.9095 204.132 79.6855 204.016 80.4695 203.912C81.2535 203.808 81.9855 203.708 82.6655 203.612L81.8975 204.056C81.9215 202.904 81.6895 202.052 81.2015 201.5C80.7215 200.948 79.8895 200.672 78.7055 200.672C77.9215 200.672 77.2335 200.852 76.6415 201.212C76.0575 201.564 75.6455 202.14 75.4055 202.94L73.3775 202.328C73.6895 201.192 74.2935 200.3 75.1895 199.652C76.0855 199.004 77.2655 198.68 78.7295 198.68C79.9055 198.68 80.9135 198.892 81.7535 199.316C82.6015 199.732 83.2095 200.364 83.5775 201.212C83.7615 201.612 83.8775 202.048 83.9255 202.52C83.9735 202.984 83.9975 203.472 83.9975 203.984V212H82.1015V208.892L82.5455 209.18C82.0575 210.228 81.3735 211.02 80.4935 211.556C79.6215 212.092 78.5575 212.36 77.3015 212.36ZM77.6255 210.572C78.3935 210.572 79.0575 210.436 79.6175 210.164C80.1855 209.884 80.6415 209.52 80.9855 209.072C81.3295 208.616 81.5535 208.12 81.6575 207.584C81.7775 207.184 81.8415 206.74 81.8495 206.252C81.8655 205.756 81.8735 205.376 81.8735 205.112L82.6175 205.436C81.9215 205.532 81.2375 205.624 80.5655 205.712C79.8935 205.8 79.2575 205.896 78.6575 206C78.0575 206.096 77.5175 206.212 77.0375 206.348C76.6855 206.46 76.3535 206.604 76.0415 206.78C75.7375 206.956 75.4895 207.184 75.2975 207.464C75.1135 207.736 75.0215 208.076 75.0215 208.484C75.0215 208.836 75.1095 209.172 75.2855 209.492C75.4695 209.812 75.7495 210.072 76.1255 210.272C76.5095 210.472 77.0095 210.572 77.6255 210.572ZM93.0695 212.36C91.8535 212.36 90.8295 212.06 89.9975 211.46C89.1655 210.852 88.5335 210.032 88.1015 209C87.6775 207.96 87.4655 206.796 87.4655 205.508C87.4655 204.204 87.6775 203.036 88.1015 202.004C88.5335 200.972 89.1655 200.16 89.9975 199.568C90.8375 198.976 91.8655 198.68 93.0815 198.68C94.2815 198.68 95.3135 198.98 96.1775 199.58C97.0495 200.172 97.7175 200.984 98.1815 202.016C98.6455 203.048 98.8775 204.212 98.8775 205.508C98.8775 206.804 98.6455 207.968 98.1815 209C97.7175 210.032 97.0495 210.852 96.1775 211.46C95.3135 212.06 94.2775 212.36 93.0695 212.36ZM87.1055 217.76V199.04H89.0135V208.58H89.2535V217.76H87.1055ZM92.8055 210.404C93.6615 210.404 94.3695 210.188 94.9295 209.756C95.4895 209.324 95.9095 208.74 96.1895 208.004C96.4695 207.26 96.6095 206.428 96.6095 205.508C96.6095 204.596 96.4695 203.772 96.1895 203.036C95.9175 202.3 95.4935 201.716 94.9175 201.284C94.3495 200.852 93.6255 200.636 92.7455 200.636C91.9055 200.636 91.2095 200.844 90.6575 201.26C90.1055 201.668 89.6935 202.24 89.4215 202.976C89.1495 203.704 89.0135 204.548 89.0135 205.508C89.0135 206.452 89.1455 207.296 89.4095 208.04C89.6815 208.776 90.0975 209.356 90.6575 209.78C91.2175 210.196 91.9335 210.404 92.8055 210.404ZM107.028 212.36C105.74 212.36 104.628 212.068 103.692 211.484C102.764 210.9 102.048 210.092 101.544 209.06C101.04 208.028 100.788 206.844 100.788 205.508C100.788 204.148 101.044 202.956 101.556 201.932C102.068 200.908 102.792 200.112 103.728 199.544C104.664 198.968 105.764 198.68 107.028 198.68C108.324 198.68 109.44 198.972 110.376 199.556C111.312 200.132 112.028 200.936 112.524 201.968C113.028 202.992 113.28 204.172 113.28 205.508C113.28 206.86 113.028 208.052 112.524 209.084C112.02 210.108 111.3 210.912 110.364 211.496C109.428 212.072 108.316 212.36 107.028 212.36ZM107.028 210.332C108.372 210.332 109.372 209.884 110.028 208.988C110.684 208.092 111.012 206.932 111.012 205.508C111.012 204.044 110.68 202.88 110.016 202.016C109.352 201.144 108.356 200.708 107.028 200.708C106.124 200.708 105.38 200.912 104.796 201.32C104.212 201.728 103.776 202.292 103.488 203.012C103.2 203.732 103.056 204.564 103.056 205.508C103.056 206.964 103.392 208.132 104.064 209.012C104.736 209.892 105.724 210.332 107.028 210.332ZM115.91 212V199.04H121.43C121.758 199.04 122.11 199.06 122.486 199.1C122.87 199.132 123.218 199.192 123.53 199.28C124.226 199.464 124.798 199.844 125.246 200.42C125.702 200.988 125.93 201.708 125.93 202.58C125.93 203.068 125.854 203.492 125.702 203.852C125.558 204.212 125.35 204.524 125.078 204.788C124.958 204.908 124.826 205.016 124.682 205.112C124.538 205.208 124.394 205.284 124.25 205.34C124.53 205.388 124.814 205.496 125.102 205.664C125.558 205.912 125.914 206.26 126.17 206.708C126.434 207.156 126.566 207.728 126.566 208.424C126.566 209.304 126.354 210.032 125.93 210.608C125.506 211.176 124.922 211.568 124.178 211.784C123.866 211.872 123.522 211.932 123.146 211.964C122.77 211.988 122.406 212 122.054 212H115.91ZM118.07 210.26H121.934C122.102 210.26 122.302 210.244 122.534 210.212C122.774 210.18 122.986 210.14 123.17 210.092C123.586 209.972 123.886 209.748 124.07 209.42C124.262 209.092 124.358 208.736 124.358 208.352C124.358 207.84 124.214 207.424 123.926 207.104C123.646 206.784 123.274 206.584 122.81 206.504C122.642 206.456 122.458 206.428 122.258 206.42C122.066 206.412 121.894 206.408 121.742 206.408H118.07V210.26ZM118.07 204.644H121.286C121.51 204.644 121.746 204.632 121.994 204.608C122.242 204.576 122.458 204.524 122.642 204.452C123.01 204.316 123.278 204.092 123.446 203.78C123.622 203.46 123.71 203.112 123.71 202.736C123.71 202.32 123.614 201.956 123.422 201.644C123.238 201.324 122.954 201.104 122.57 200.984C122.314 200.888 122.026 200.836 121.706 200.828C121.394 200.812 121.194 200.804 121.106 200.804H118.07V204.644Z" fill="#454545"/>
<path d="M44.48 92V54.336L35.84 59.616V51.104L44.48 45.92H52.352V92H44.48ZM66.8785 92L82.7505 53.216H62.6225V45.92H91.0065V53.216L75.1985 92H66.8785ZM115.244 92.96C111.98 92.96 109.1 92.2667 106.604 90.88C104.108 89.472 102.156 87.52 100.748 85.024C99.3608 82.528 98.6675 79.648 98.6675 76.384V61.536C98.6675 58.272 99.3608 55.392 100.748 52.896C102.156 50.4 104.108 48.4587 106.604 47.072C109.1 45.664 111.98 44.96 115.244 44.96C118.508 44.96 121.377 45.664 123.852 47.072C126.348 48.4587 128.3 50.4 129.708 52.896C131.116 55.392 131.819 58.272 131.819 61.536V76.384C131.819 79.648 131.116 82.528 129.708 85.024C128.3 87.52 126.348 89.472 123.852 90.88C121.377 92.2667 118.508 92.96 115.244 92.96ZM115.244 85.632C116.865 85.632 118.337 85.248 119.66 84.48C120.982 83.6907 122.028 82.6453 122.796 81.344C123.564 80.0213 123.948 78.5493 123.948 76.928V60.96C123.948 59.3173 123.564 57.8453 122.796 56.544C122.028 55.2213 120.982 54.176 119.66 53.408C118.337 52.6187 116.865 52.224 115.244 52.224C113.622 52.224 112.15 52.6187 110.828 53.408C109.505 54.176 108.46 55.2213 107.692 56.544C106.924 57.8453 106.54 59.3173 106.54 60.96V76.928C106.54 78.5493 106.924 80.0213 107.692 81.344C108.46 82.6453 109.505 83.6907 110.828 84.48C112.15 85.248 113.622 85.632 115.244 85.632ZM151.609 83.424V71.968H140.153V65.92H151.609V54.496H157.657V65.92H169.049V71.968H157.657V83.424H151.609Z" fill="#454545"/>
</svg>
