<svg width="49" height="54" viewBox="0 0 49 54" fill="none" xmlns="http://www.w3.org/2000/svg">
<circle cx="37" cy="9" r="8" fill="#C63C3C"/>
<path d="M36.346 13V5.74L34.72 6.73V5.332L36.346 4.36H37.624V13H36.346Z" fill="white"/>
<path d="M30.6666 26.6667C29.1939 26.6667 28 27.8606 28 29.3333C28 30.8061 29.1939 32 30.6666 32C32.1394 32 33.3333 30.8061 33.3333 29.3333C33.3333 27.8606 32.1394 26.6667 30.6666 26.6667ZM30.6666 26.6667L21.3333 26.6667C20.4677 26.7158 19.6095 26.4822 18.888 26.0013C18.1666 25.5203 17.621 24.818 17.3333 24L14.6667 8H12M30.6666 26.6667C31.5323 26.7158 32.3905 26.4822 33.112 26.0013C33.8334 25.5203 34.379 24.818 34.6667 24L36 14.6667H15.7333M22.6667 29.3333C22.6667 30.8061 21.4728 32 20 32C18.5272 32 17.3333 30.8061 17.3333 29.3333C17.3333 27.8606 18.5272 26.6667 20 26.6667C21.4728 26.6667 22.6667 27.8606 22.6667 29.3333Z" stroke="#454545" stroke-width="2" stroke-linecap="round" stroke-linejoin="round"/>
<path d="M0.84 51V42.36H2.094V46.392L5.712 42.36H7.272L3.45 46.578L7.554 51H5.946L2.094 46.872V51H0.84ZM10.7321 51.18C10.0841 51.18 9.52213 51.034 9.04613 50.742C8.57013 50.45 8.20213 50.048 7.94213 49.536C7.68613 49.02 7.55813 48.426 7.55813 47.754C7.55813 47.078 7.69013 46.484 7.95413 45.972C8.21813 45.456 8.58813 45.056 9.06413 44.772C9.54013 44.484 10.0961 44.34 10.7321 44.34C11.3801 44.34 11.9421 44.486 12.4181 44.778C12.8941 45.07 13.2621 45.472 13.5221 45.984C13.7821 46.496 13.9121 47.086 13.9121 47.754C13.9121 48.43 13.7801 49.026 13.5161 49.542C13.2561 50.054 12.8881 50.456 12.4121 50.748C11.9361 51.036 11.3761 51.18 10.7321 51.18ZM10.7321 49.998C11.3521 49.998 11.8141 49.79 12.1181 49.374C12.4261 48.954 12.5801 48.414 12.5801 47.754C12.5801 47.078 12.4241 46.538 12.1121 46.134C11.8041 45.726 11.3441 45.522 10.7321 45.522C10.3121 45.522 9.96613 45.618 9.69413 45.81C9.42213 45.998 9.22013 46.26 9.08813 46.596C8.95613 46.928 8.89013 47.314 8.89013 47.754C8.89013 48.434 9.04613 48.978 9.35813 49.386C9.67013 49.794 10.1281 49.998 10.7321 49.998ZM18.2726 51.18C17.6526 51.18 17.1326 51.03 16.7126 50.73C16.2926 50.426 15.9746 50.016 15.7586 49.5C15.5426 48.984 15.4346 48.402 15.4346 47.754C15.4346 47.106 15.5406 46.524 15.7526 46.008C15.9686 45.492 16.2846 45.086 16.7006 44.79C17.1206 44.49 17.6366 44.34 18.2486 44.34C18.8566 44.34 19.3806 44.49 19.8206 44.79C20.2646 45.086 20.6066 45.492 20.8466 46.008C21.0866 46.52 21.2066 47.102 21.2066 47.754C21.2066 48.402 21.0866 48.986 20.8466 49.506C20.6106 50.022 20.2726 50.43 19.8326 50.73C19.3966 51.03 18.8766 51.18 18.2726 51.18ZM15.2246 53.88V44.52H16.3406V49.182H16.4846V53.88H15.2246ZM18.0986 50.046C18.4986 50.046 18.8286 49.944 19.0886 49.74C19.3526 49.536 19.5486 49.262 19.6766 48.918C19.8086 48.57 19.8746 48.182 19.8746 47.754C19.8746 47.33 19.8086 46.946 19.6766 46.602C19.5486 46.258 19.3506 45.984 19.0826 45.78C18.8146 45.576 18.4726 45.474 18.0566 45.474C17.6646 45.474 17.3406 45.57 17.0846 45.762C16.8326 45.954 16.6446 46.222 16.5206 46.566C16.4006 46.91 16.3406 47.306 16.3406 47.754C16.3406 48.202 16.4006 48.598 16.5206 48.942C16.6406 49.286 16.8306 49.556 17.0906 49.752C17.3506 49.948 17.6866 50.046 18.0986 50.046ZM24.607 51.18C23.979 51.18 23.415 51.046 22.915 50.778C22.419 50.51 22.027 50.14 21.739 49.668L22.735 49.014C22.967 49.326 23.235 49.568 23.539 49.74C23.847 49.912 24.193 49.998 24.577 49.998C24.977 49.998 25.293 49.908 25.525 49.728C25.761 49.544 25.879 49.298 25.879 48.99C25.879 48.746 25.811 48.566 25.675 48.45C25.543 48.33 25.359 48.252 25.123 48.216C24.891 48.18 24.627 48.162 24.331 48.162H23.755V47.154H24.331C24.723 47.154 25.045 47.1 25.297 46.992C25.553 46.88 25.681 46.67 25.681 46.362C25.681 46.062 25.571 45.846 25.351 45.714C25.135 45.582 24.877 45.516 24.577 45.516C24.241 45.516 23.915 45.588 23.599 45.732C23.283 45.872 23.007 46.046 22.771 46.254L22.039 45.396C22.383 45.064 22.775 44.806 23.215 44.622C23.659 44.434 24.135 44.34 24.643 44.34C25.059 44.34 25.443 44.414 25.795 44.562C26.151 44.706 26.435 44.92 26.647 45.204C26.863 45.488 26.971 45.838 26.971 46.254C26.971 46.578 26.899 46.874 26.755 47.142C26.611 47.41 26.391 47.654 26.095 47.874L26.059 47.448C26.303 47.524 26.507 47.646 26.671 47.814C26.835 47.982 26.957 48.18 27.037 48.408C27.121 48.632 27.163 48.87 27.163 49.122C27.163 49.558 27.047 49.93 26.815 50.238C26.587 50.546 26.279 50.78 25.891 50.94C25.503 51.1 25.075 51.18 24.607 51.18ZM33.9445 44.52V51H32.7385V46.494L29.4985 51H28.4785V44.52H29.6845V48.936L32.9305 44.52H33.9445ZM35.6153 51V44.52H36.8693V47.166H40.0313V44.52H41.2853V51H40.0313V48.348H36.8693V51H35.6153ZM44.7989 51.18C44.3189 51.18 43.9169 51.092 43.5929 50.916C43.2689 50.736 43.0229 50.5 42.8549 50.208C42.6909 49.912 42.6089 49.588 42.6089 49.236C42.6089 48.908 42.6669 48.62 42.7829 48.372C42.8989 48.124 43.0709 47.914 43.2989 47.742C43.5269 47.566 43.8069 47.424 44.1389 47.316C44.4269 47.232 44.7529 47.158 45.1169 47.094C45.4809 47.03 45.8629 46.97 46.2629 46.914C46.6669 46.858 47.0669 46.802 47.4629 46.746L47.0069 46.998C47.0149 46.49 46.9069 46.114 46.6829 45.87C46.4629 45.622 46.0829 45.498 45.5429 45.498C45.2029 45.498 44.8909 45.578 44.6069 45.738C44.3229 45.894 44.1249 46.154 44.0129 46.518L42.8429 46.158C43.0029 45.602 43.3069 45.16 43.7549 44.832C44.2069 44.504 44.8069 44.34 45.5549 44.34C46.1349 44.34 46.6389 44.44 47.0669 44.64C47.4989 44.836 47.8149 45.148 48.0149 45.576C48.1189 45.788 48.1829 46.012 48.2069 46.248C48.2309 46.484 48.2429 46.738 48.2429 47.01V51H47.1329V49.518L47.3489 49.71C47.0809 50.206 46.7389 50.576 46.3229 50.82C45.9109 51.06 45.4029 51.18 44.7989 51.18ZM45.0209 50.154C45.3769 50.154 45.6829 50.092 45.9389 49.968C46.1949 49.84 46.4009 49.678 46.5569 49.482C46.7129 49.286 46.8149 49.082 46.8629 48.87C46.9309 48.678 46.9689 48.462 46.9769 48.222C46.9889 47.982 46.9949 47.79 46.9949 47.646L47.4029 47.796C47.0069 47.856 46.6469 47.91 46.3229 47.958C45.9989 48.006 45.7049 48.054 45.4409 48.102C45.1809 48.146 44.9489 48.2 44.7449 48.264C44.5729 48.324 44.4189 48.396 44.2829 48.48C44.1509 48.564 44.0449 48.666 43.9649 48.786C43.8889 48.906 43.8509 49.052 43.8509 49.224C43.8509 49.392 43.8929 49.548 43.9769 49.692C44.0609 49.832 44.1889 49.944 44.3609 50.028C44.5329 50.112 44.7529 50.154 45.0209 50.154Z" fill="#454545"/>
</svg>
