<svg width="153" height="50" viewBox="0 0 153 50" fill="none" xmlns="http://www.w3.org/2000/svg">
<rect width="153" height="50" rx="25" fill="#454545"/>
<path d="M63.12 31V19.48H64.792V24.856L69.616 19.48H71.696L66.6 25.104L72.072 31H69.928L64.792 25.496V31H63.12ZM75.6381 31.24C74.9981 31.24 74.4621 31.1227 74.0301 30.888C73.5981 30.648 73.2701 30.3333 73.0461 29.944C72.8275 29.5493 72.7181 29.1173 72.7181 28.648C72.7181 28.2107 72.7955 27.8267 72.9501 27.496C73.1048 27.1653 73.3341 26.8853 73.6381 26.656C73.9421 26.4213 74.3155 26.232 74.7581 26.088C75.1421 25.976 75.5768 25.8773 76.0621 25.792C76.5475 25.7067 77.0568 25.6267 77.5901 25.552C78.1288 25.4773 78.6621 25.4027 79.1901 25.328L78.5821 25.664C78.5928 24.9867 78.4488 24.4853 78.1501 24.16C77.8568 23.8293 77.3501 23.664 76.6301 23.664C76.1768 23.664 75.7608 23.7707 75.3821 23.984C75.0035 24.192 74.7395 24.5387 74.5901 25.024L73.0301 24.544C73.2435 23.8027 73.6488 23.2133 74.2461 22.776C74.8488 22.3387 75.6488 22.12 76.6461 22.12C77.4195 22.12 78.0915 22.2533 78.6621 22.52C79.2381 22.7813 79.6595 23.1973 79.9261 23.768C80.0648 24.0507 80.1501 24.3493 80.1821 24.664C80.2141 24.9787 80.2301 25.3173 80.2301 25.68V31H78.7501V29.024L79.0381 29.28C78.6808 29.9413 78.2248 30.4347 77.6701 30.76C77.1208 31.08 76.4435 31.24 75.6381 31.24ZM75.9341 29.872C76.4088 29.872 76.8168 29.7893 77.1581 29.624C77.4995 29.4533 77.7741 29.2373 77.9821 28.976C78.1901 28.7147 78.3261 28.4427 78.3901 28.16C78.4808 27.904 78.5315 27.616 78.5421 27.296C78.5581 26.976 78.5661 26.72 78.5661 26.528L79.1101 26.728C78.5821 26.808 78.1021 26.88 77.6701 26.944C77.2381 27.008 76.8461 27.072 76.4941 27.136C76.1475 27.1947 75.8381 27.2667 75.5661 27.352C75.3368 27.432 75.1315 27.528 74.9501 27.64C74.7741 27.752 74.6328 27.888 74.5261 28.048C74.4248 28.208 74.3741 28.4027 74.3741 28.632C74.3741 28.856 74.4301 29.064 74.5421 29.256C74.6541 29.4427 74.8248 29.592 75.0541 29.704C75.2835 29.816 75.5768 29.872 75.9341 29.872ZM84.5395 31V23.864H81.5875V22.36H89.1635V23.864H86.2115V31H84.5395ZM92.8725 31.24C92.2325 31.24 91.6965 31.1227 91.2645 30.888C90.8325 30.648 90.5045 30.3333 90.2805 29.944C90.0618 29.5493 89.9525 29.1173 89.9525 28.648C89.9525 28.2107 90.0298 27.8267 90.1845 27.496C90.3392 27.1653 90.5685 26.8853 90.8725 26.656C91.1765 26.4213 91.5498 26.232 91.9925 26.088C92.3765 25.976 92.8112 25.8773 93.2965 25.792C93.7818 25.7067 94.2912 25.6267 94.8245 25.552C95.3632 25.4773 95.8965 25.4027 96.4245 25.328L95.8165 25.664C95.8272 24.9867 95.6832 24.4853 95.3845 24.16C95.0912 23.8293 94.5845 23.664 93.8645 23.664C93.4112 23.664 92.9952 23.7707 92.6165 23.984C92.2378 24.192 91.9738 24.5387 91.8245 25.024L90.2645 24.544C90.4778 23.8027 90.8832 23.2133 91.4805 22.776C92.0832 22.3387 92.8832 22.12 93.8805 22.12C94.6538 22.12 95.3258 22.2533 95.8965 22.52C96.4725 22.7813 96.8938 23.1973 97.1605 23.768C97.2992 24.0507 97.3845 24.3493 97.4165 24.664C97.4485 24.9787 97.4645 25.3173 97.4645 25.68V31H95.9845V29.024L96.2725 29.28C95.9152 29.9413 95.4592 30.4347 94.9045 30.76C94.3552 31.08 93.6778 31.24 92.8725 31.24ZM93.1685 29.872C93.6432 29.872 94.0512 29.7893 94.3925 29.624C94.7338 29.4533 95.0085 29.2373 95.2165 28.976C95.4245 28.7147 95.5605 28.4427 95.6245 28.16C95.7152 27.904 95.7658 27.616 95.7765 27.296C95.7925 26.976 95.8005 26.72 95.8005 26.528L96.3445 26.728C95.8165 26.808 95.3365 26.88 94.9045 26.944C94.4725 27.008 94.0805 27.072 93.7285 27.136C93.3818 27.1947 93.0725 27.2667 92.8005 27.352C92.5712 27.432 92.3658 27.528 92.1845 27.64C92.0085 27.752 91.8672 27.888 91.7605 28.048C91.6592 28.208 91.6085 28.4027 91.6085 28.632C91.6085 28.856 91.6645 29.064 91.7765 29.256C91.8885 29.4427 92.0592 29.592 92.2885 29.704C92.5178 29.816 92.8112 29.872 93.1685 29.872ZM98.7419 31V29.584C99.0619 29.6427 99.3045 29.6347 99.4699 29.56C99.6405 29.48 99.7659 29.336 99.8459 29.128C99.9312 28.92 100.003 28.6507 100.062 28.32C100.153 27.8347 100.23 27.2827 100.294 26.664C100.363 26.04 100.425 25.3653 100.478 24.64C100.531 23.9147 100.579 23.1547 100.622 22.36H106.83V31H105.15V23.936H102.126C102.094 24.3573 102.057 24.8053 102.014 25.28C101.977 25.7493 101.934 26.216 101.886 26.68C101.838 27.144 101.787 27.5787 101.734 27.984C101.681 28.3893 101.625 28.736 101.566 29.024C101.459 29.6 101.302 30.0587 101.094 30.4C100.891 30.736 100.603 30.952 100.23 31.048C99.8565 31.1493 99.3605 31.1333 98.7419 31ZM112.825 31.24C111.961 31.24 111.212 31.0453 110.577 30.656C109.942 30.2667 109.452 29.7307 109.105 29.048C108.764 28.36 108.593 27.568 108.593 26.672C108.593 25.7707 108.769 24.9787 109.121 24.296C109.473 23.608 109.966 23.0747 110.601 22.696C111.236 22.312 111.977 22.12 112.825 22.12C113.689 22.12 114.438 22.3147 115.073 22.704C115.708 23.0933 116.198 23.6293 116.545 24.312C116.892 24.9947 117.065 25.7813 117.065 26.672C117.065 27.5733 116.889 28.368 116.537 29.056C116.19 29.7387 115.7 30.2747 115.065 30.664C114.43 31.048 113.684 31.24 112.825 31.24ZM112.825 29.664C113.652 29.664 114.268 29.3867 114.673 28.832C115.084 28.272 115.289 27.552 115.289 26.672C115.289 25.7707 115.081 25.0507 114.665 24.512C114.254 23.968 113.641 23.696 112.825 23.696C112.265 23.696 111.804 23.824 111.441 24.08C111.078 24.3307 110.809 24.68 110.633 25.128C110.457 25.5707 110.369 26.0853 110.369 26.672C110.369 27.5787 110.577 28.304 110.993 28.848C111.409 29.392 112.02 29.664 112.825 29.664ZM118.823 31V22.36H124.903V23.936H120.495V31H118.823Z" fill="white"/>
<path d="M28 18H53M28 25H46M28 32H53" stroke="white" stroke-width="2"/>
</svg>
